<svg xmlns="http://www.w3.org/2000/svg" xmlns:xlink="http://www.w3.org/1999/xlink" width="1024" zoomAndPan="magnify" viewBox="0 0 768 767.999994" height="1024" preserveAspectRatio="xMidYMid meet" version="1.0"><defs><g/><clipPath id="5687a3fdcd"><path d="M 81.082031 87.140625 L 687 87.140625 L 687 681 L 81.082031 681 Z M 81.082031 87.140625 " clip-rule="nonzero"/></clipPath><clipPath id="2c615a7970"><rect x="0" width="396" y="0" height="768"/></clipPath></defs><rect x="-76.8" width="921.6" fill="#ffffff" y="-76.799999" height="921.599993" fill-opacity="1"/><rect x="-76.8" width="921.6" fill="#5c5f49" y="-76.799999" height="921.599993" fill-opacity="1"/><g clip-path="url(#5687a3fdcd)"><path fill="#f1eae8" d="M 664.425781 638.171875 C 664.304688 637.929688 664.0625 637.6875 663.941406 637.445312 C 663.335938 636.597656 662.851562 635.746094 662.367188 635.019531 C 654.96875 623.378906 649.511719 610.644531 646.480469 597.0625 C 646.117188 595.367188 645.753906 593.667969 645.507812 591.96875 C 644.902344 589.546875 644.296875 587.121094 643.933594 584.695312 C 643.8125 583.722656 643.570312 582.753906 643.449219 581.90625 C 643.449219 581.664062 643.449219 581.542969 643.328125 581.300781 C 643.207031 580.570312 643.085938 579.84375 643.085938 579.117188 C 643.085938 578.753906 643.085938 578.511719 642.964844 578.144531 C 642.964844 577.539062 642.839844 576.933594 642.839844 576.328125 C 642.839844 575.964844 642.839844 575.597656 642.839844 575.234375 C 642.839844 574.628906 642.839844 574.144531 642.839844 573.539062 C 642.839844 573.054688 642.839844 572.445312 642.839844 571.960938 C 642.839844 568.203125 643.328125 564.320312 644.175781 560.683594 C 646.480469 550.617188 651.453125 541.523438 656.542969 532.671875 C 661.757812 523.453125 665.15625 516.179688 667.457031 506.113281 C 667.578125 505.75 667.578125 505.507812 667.703125 505.144531 C 669.277344 488.046875 668.066406 470.945312 662.246094 454.695312 C 658.242188 443.785156 652.058594 434.324219 645.023438 425.230469 C 632.050781 412.375 620.890625 398.792969 611.917969 382.785156 C 609.25 378.058594 606.824219 373.328125 604.523438 368.476562 C 602.21875 364.597656 600.15625 360.714844 598.335938 356.472656 C 598.09375 355.742188 597.730469 355.136719 597.488281 354.410156 C 597.125 353.441406 596.761719 352.46875 596.398438 351.5 C 596.398438 351.378906 596.398438 351.378906 596.277344 351.257812 C 595.910156 350.289062 595.667969 349.316406 595.304688 348.226562 C 595.304688 348.105469 595.183594 347.863281 595.183594 347.742188 C 594.578125 345.679688 594.09375 343.617188 593.730469 341.554688 C 593.363281 340.34375 593 339.007812 592.636719 337.796875 C 588.878906 349.074219 586.089844 360.835938 580.875 371.507812 C 575.417969 382.785156 568.382812 393.214844 563.535156 404.855469 C 559.289062 414.921875 557.714844 425.957031 555.773438 436.628906 C 554.800781 442.207031 553.953125 447.785156 553.710938 453.484375 C 553.46875 459.183594 554.800781 464.640625 555.410156 470.339844 C 555.894531 475.3125 556.257812 480.40625 557.46875 485.378906 C 558.925781 491.5625 562.078125 495.925781 566.203125 500.777344 C 570.082031 505.265625 574.570312 508.78125 577.84375 513.753906 C 581.238281 519.089844 586.9375 523.578125 591.183594 528.304688 C 595.425781 533.035156 599.1875 538.371094 603.429688 543.222656 C 607.433594 547.828125 612.402344 551.347656 617.011719 555.347656 C 621.742188 559.472656 625.136719 564.929688 629.015625 569.898438 C 629.382812 570.386719 629.867188 570.992188 630.230469 571.476562 C 630.351562 577.417969 632.777344 582.632812 634.839844 588.210938 C 637.382812 595.246094 637.261719 602.882812 640.902344 609.554688 C 641.992188 611.496094 642.964844 613.433594 643.933594 615.253906 C 638.597656 610.28125 632.898438 605.792969 626.226562 602.277344 C 620.40625 599.125 614.707031 595.730469 609.007812 592.335938 C 603.914062 589.421875 598.820312 587 593.488281 584.695312 C 583.542969 582.632812 573.960938 578.753906 565.714844 572.808594 C 565.351562 572.6875 565.109375 572.566406 564.746094 572.445312 C 564.746094 572.324219 564.867188 572.324219 564.867188 572.203125 C 562.199219 570.140625 559.652344 567.960938 557.226562 565.535156 C 550.316406 558.378906 545.101562 550.375 541.34375 541.644531 C 539.644531 538.371094 538.066406 534.976562 536.734375 531.578125 C 531.640625 518.96875 528.246094 505.992188 529.335938 492.410156 C 529.820312 485.621094 531.035156 479.070312 531.519531 472.28125 C 531.761719 468.644531 531.640625 464.882812 531.519531 461.246094 C 532.730469 457.972656 533.460938 454.574219 534.1875 451.179688 C 535.765625 444.148438 537.21875 437.234375 539.402344 430.324219 C 543.644531 416.621094 549.101562 403.28125 552.984375 389.335938 C 554.558594 383.515625 555.53125 377.570312 556.984375 371.628906 C 558.5625 365.082031 560.988281 359.382812 564.261719 353.5625 C 567.777344 347.375 569.839844 340.464844 572.023438 333.796875 C 574.328125 326.640625 576.628906 319.484375 578.691406 312.332031 C 582.207031 299.960938 578.328125 285.410156 573.960938 273.769531 C 571.539062 267.21875 568.140625 261.035156 564.867188 254.851562 C 561.351562 248.179688 558.320312 241.390625 554.921875 234.71875 C 548.132812 221.382812 539.160156 209.496094 532.609375 196.035156 C 526.183594 182.941406 520 169.480469 515.875 155.414062 C 513.816406 148.257812 512.964844 140.980469 511.996094 133.707031 C 511.511719 129.824219 510.902344 125.945312 510.417969 121.941406 C 509.328125 124.730469 508.113281 127.519531 507.023438 130.1875 C 505.933594 132.855469 504.71875 135.402344 503.507812 138.070312 C 502.902344 139.40625 502.292969 140.617188 501.6875 141.953125 C 497.566406 150.441406 492.835938 158.808594 487.136719 166.328125 C 484.953125 171.539062 483.375 176.996094 481.195312 182.210938 C 479.980469 185.242188 477.796875 187.789062 476.585938 190.945312 C 475.375 194.339844 474.523438 197.734375 473.796875 201.128906 C 471.128906 213.984375 471.613281 227.445312 471.976562 240.421875 C 472.339844 253.878906 473.070312 267.582031 476.34375 280.679688 C 479.738281 294.503906 487.136719 306.996094 489.925781 320.820312 C 491.257812 327.730469 492.59375 334.523438 495.019531 341.191406 C 497.566406 347.984375 500.234375 354.410156 500.355469 361.6875 C 500.476562 367.871094 498.535156 373.8125 497.445312 379.875 C 496.230469 386.546875 497.566406 393.699219 498.535156 400.371094 C 500.597656 414.4375 503.386719 428.261719 507.628906 441.722656 C 509.207031 446.574219 510.78125 451.542969 512.359375 456.394531 C 513.816406 460.882812 515.875 464.882812 517.9375 469.128906 C 517.9375 470.460938 517.9375 471.917969 517.9375 473.25 C 517.9375 482.347656 517.089844 491.5625 517.574219 500.65625 C 518.058594 509.507812 520.242188 518.363281 523.152344 526.730469 C 526.304688 536.308594 530.1875 546.011719 536.128906 554.257812 C 536.128906 554.257812 536.25 554.378906 536.25 554.378906 C 535.15625 553.648438 534.066406 552.800781 532.976562 552.074219 C 527.273438 548.316406 520.363281 543.222656 516.117188 537.886719 C 507.265625 526.488281 500.960938 513.148438 498.292969 499.082031 C 497.078125 492.652344 494.898438 486.226562 492.835938 480.042969 C 490.652344 473.128906 488.589844 466.21875 487.015625 459.183594 C 483.863281 445.359375 480.832031 431.777344 476.222656 418.195312 C 471.613281 404.492188 467.371094 390.183594 459.609375 377.9375 C 456.699219 373.328125 453.304688 368.960938 449.785156 364.839844 C 448.332031 361.6875 446.632812 358.535156 445.300781 355.378906 C 442.753906 348.953125 442.023438 343.375 442.511719 336.460938 C 442.511719 336.21875 442.511719 336.097656 442.511719 335.855469 C 439.601562 325.914062 439.113281 315.242188 440.691406 305.054688 C 440.570312 304.570312 440.449219 304.085938 440.328125 303.601562 C 440.570312 303.601562 440.8125 303.601562 440.933594 303.476562 C 441.417969 300.6875 442.148438 297.898438 442.996094 295.109375 C 447.726562 280.558594 450.636719 264.914062 450.757812 249.273438 C 450.269531 240.664062 448.695312 231.929688 445.058594 224.777344 C 438.871094 212.648438 430.261719 201.859375 419.347656 193.613281 C 408.917969 185.730469 398.734375 177.121094 386.726562 171.785156 C 380.664062 169.117188 373.996094 167.539062 367.808594 165.355469 C 361.140625 163.050781 355.320312 158.808594 349.015625 155.777344 C 342.34375 152.625 336.039062 147.410156 329.855469 143.285156 C 323.667969 139.042969 317.726562 134.796875 311.179688 131.28125 C 305.480469 128.25 299.660156 125.339844 294.324219 121.820312 C 289.957031 118.910156 286.441406 115.273438 283.167969 111.394531 C 280.5 109.332031 277.953125 107.148438 275.527344 104.964844 C 274.433594 104.238281 273.464844 103.511719 272.375 102.78125 C 271.402344 102.054688 270.3125 101.207031 269.34375 100.480469 C 266.917969 98.539062 264.492188 96.476562 262.1875 94.414062 C 261.824219 94.050781 261.339844 93.566406 260.976562 93.203125 C 258.914062 91.261719 256.851562 89.203125 254.910156 87.140625 C 257.941406 94.292969 260.855469 101.449219 263.886719 108.484375 C 268.980469 120.609375 272.859375 133.097656 277.347656 145.347656 C 279.40625 151.046875 280.863281 156.503906 283.894531 161.839844 C 287.046875 167.417969 291.171875 172.511719 295.171875 177.484375 C 303.539062 187.910156 310.085938 199.066406 320.515625 207.800781 C 330.339844 215.925781 339.796875 224.535156 350.347656 231.808594 C 360.535156 238.964844 371.691406 245.878906 379.695312 255.457031 C 383.574219 260.1875 386.96875 265.28125 390.851562 269.886719 C 394.488281 274.253906 398.25 278.496094 401.886719 282.863281 C 407.707031 286.863281 413.890625 290.746094 419.105469 295.597656 C 423.351562 299.476562 427.351562 303.964844 429.050781 309.542969 C 429.535156 310.996094 429.898438 312.453125 430.140625 313.90625 C 430.382812 314.027344 430.625 314.148438 430.867188 314.148438 C 431.234375 316.574219 431.476562 319 431.71875 321.546875 C 432.203125 327.851562 431.355469 334.039062 431.234375 340.34375 C 431.234375 343.253906 431.71875 346.164062 432.445312 349.074219 C 431.71875 348.589844 431.109375 348.105469 430.382812 347.621094 C 418.984375 339.738281 406.496094 333.1875 393.761719 327.730469 C 380.421875 322.03125 368.296875 312.9375 356.046875 305.175781 C 348.042969 300.082031 339.3125 296.445312 330.582031 292.6875 C 325.003906 288.925781 320.757812 284.074219 315.789062 279.589844 C 310.9375 275.222656 305.238281 271.707031 301.234375 266.371094 C 296.628906 260.1875 293.230469 253.152344 289.835938 246.242188 C 283.289062 232.902344 277.953125 218.957031 271.644531 205.375 C 265.703125 192.519531 255.761719 180.878906 246.421875 170.449219 C 236.722656 159.65625 226.414062 150.5625 213.4375 144.136719 C 199.976562 137.828125 187.972656 126.792969 174.511719 121.699219 C 156.078125 114.546875 141.164062 112.726562 123.214844 104.480469 C 116.910156 101.570312 106.238281 101.328125 99.328125 99.871094 C 93.265625 98.539062 87.078125 97.570312 81.136719 96.113281 C 81.621094 101.691406 89.503906 107.148438 93.628906 111.273438 C 99.328125 117.09375 104.421875 123.035156 109.148438 129.582031 C 113.515625 135.523438 117.757812 141.710938 121.640625 147.894531 C 125.761719 154.441406 128.550781 161.960938 131.582031 168.996094 C 134.371094 175.542969 137.164062 182.089844 140.4375 188.398438 C 144.074219 195.308594 148.5625 201.613281 152.925781 208.042969 C 161.050781 220.046875 167.234375 233.265625 176.574219 244.421875 C 185.910156 255.699219 198.523438 263.582031 210.285156 272.070312 C 221.925781 280.4375 233.082031 289.289062 245.695312 296.203125 C 257.699219 302.75 271.039062 307.359375 284.5 309.90625 C 298.6875 312.574219 313.242188 313.300781 327.550781 315 C 338.949219 316.453125 349.621094 321.667969 360.898438 323.730469 C 363.566406 325.425781 366.113281 327.125 368.78125 328.824219 C 374.84375 332.824219 380.90625 336.582031 387.578125 339.375 C 394.246094 342.164062 400.792969 345.316406 407.101562 348.832031 C 419.347656 355.5 430.867188 363.261719 440.085938 373.933594 C 444.449219 379.027344 449.179688 385.210938 451.96875 391.273438 C 452.695312 392.851562 453.304688 394.304688 453.910156 395.882812 C 452.9375 395.15625 451.847656 394.429688 450.757812 393.699219 C 447.96875 391.761719 444.570312 391.152344 441.660156 389.699219 C 441.417969 389.578125 410.496094 384.726562 398.734375 375.023438 C 398.125 374.539062 395.945312 372.601562 395.335938 372.113281 C 385.394531 363.261719 376.785156 352.953125 367.082031 343.859375 C 366.960938 343.738281 366.71875 343.738281 366.597656 343.617188 C 364.050781 342.527344 361.867188 339.980469 359.5625 338.523438 C 357.015625 336.828125 354.714844 335.25 351.925781 334.039062 C 347.4375 331.976562 343.800781 328.214844 339.191406 326.761719 C 334.097656 325.183594 329.367188 323.488281 324.277344 321.667969 C 319.304688 319.847656 313.96875 320.089844 308.875 319.242188 C 306.328125 318.757812 303.902344 318.03125 301.355469 317.425781 C 298.445312 316.574219 295.777344 317.425781 292.867188 318.273438 C 287.53125 319.726562 283.046875 320.578125 277.589844 320.820312 C 272.011719 321.0625 268.128906 324.457031 263.035156 326.15625 C 257.335938 328.214844 249.941406 327.003906 243.996094 326.519531 C 238.90625 326.15625 233.691406 325.671875 228.597656 325.183594 C 223.503906 324.820312 217.804688 322.636719 213.195312 320.699219 C 207.496094 318.273438 201.554688 316.210938 195.855469 313.664062 C 192.09375 311.96875 188.457031 310.753906 184.820312 309.179688 C 186.152344 311.722656 187.730469 314.269531 189.183594 316.816406 C 189.550781 317.300781 190.15625 318.394531 190.15625 318.394531 C 191.609375 320.578125 193.066406 322.882812 194.519531 325.0625 C 195.007812 325.792969 195.492188 326.398438 195.976562 327.125 C 196.582031 327.851562 197.066406 328.582031 197.675781 329.429688 C 197.796875 329.550781 197.796875 329.671875 197.917969 329.792969 C 206.648438 340.707031 218.046875 349.921875 226.171875 361.320312 C 233.933594 369.082031 239.753906 378.300781 247.273438 386.183594 C 250.546875 389.578125 254.789062 392.125 259.277344 393.699219 C 264.492188 395.640625 269.707031 397.582031 275.042969 399.15625 C 285.835938 402.429688 296.871094 398.066406 307.664062 397.703125 C 313.484375 397.460938 319.183594 398.671875 324.882812 398.1875 C 330.703125 397.703125 336.523438 398.308594 342.34375 398.550781 C 353.621094 398.914062 365.019531 396.488281 376.054688 394.304688 C 381.753906 393.214844 386.484375 389.699219 392.0625 388.242188 C 394.972656 387.394531 397.519531 387.152344 399.945312 386.304688 C 403.949219 387.878906 408.191406 389.335938 412.195312 390.789062 C 415.226562 392.003906 421.773438 395.519531 422.378906 395.761719 C 426.261719 397.097656 430.503906 398.066406 434.628906 399.15625 C 435.355469 399.15625 436.203125 399.035156 436.933594 399.035156 C 436.082031 399.15625 437.054688 399.640625 437.78125 400.007812 C 446.148438 402.308594 454.03125 405.339844 459.246094 412.859375 C 459.609375 413.34375 459.972656 413.832031 460.214844 414.4375 C 460.578125 415.042969 460.941406 415.769531 461.304688 416.5 C 465.066406 423.894531 466.882812 432.019531 468.097656 440.265625 C 469.429688 444.875 470.523438 449.605469 471.613281 454.332031 C 474.523438 467.671875 478.042969 481.375 482.648438 494.230469 C 484.953125 500.535156 486.042969 507.085938 488.347656 513.511719 C 488.710938 514.601562 489.199219 515.695312 489.5625 516.785156 C 486.652344 515.332031 483.984375 513.390625 481.074219 512.054688 C 478.042969 510.722656 475.128906 509.144531 472.097656 507.8125 C 466.277344 505.144531 460.699219 502.476562 454.515625 500.535156 C 454.03125 500.414062 453.667969 500.292969 453.179688 500.171875 C 452.453125 499.566406 451.847656 499.082031 451.121094 498.472656 C 448.695312 496.535156 448.332031 493.988281 446.996094 491.441406 C 444.570312 486.710938 439.964844 484.042969 437.175781 479.679688 C 430.503906 469.492188 422.257812 461.488281 411.949219 455.0625 C 407.101562 452.027344 402.492188 448.511719 397.761719 445.480469 C 393.15625 442.570312 388.0625 441.117188 383.089844 439.175781 C 377.753906 437.113281 372.539062 434.6875 366.960938 433.476562 C 360.898438 432.019531 354.59375 433.113281 348.40625 433.113281 C 342.222656 432.992188 336.160156 432.503906 329.855469 433.113281 C 323.425781 433.597656 317.121094 434.6875 310.695312 435.171875 C 304.75 435.660156 298.929688 436.023438 293.109375 436.992188 C 286.683594 438.082031 281.347656 440.386719 275.40625 442.933594 C 269.464844 445.480469 264.25 446.574219 257.820312 445.84375 C 255.273438 445.601562 252.730469 445.117188 250.304688 444.753906 C 241.328125 447.300781 231.628906 447.785156 222.535156 447.179688 C 221.925781 447.179688 221.320312 447.058594 220.59375 447.058594 C 219.621094 446.9375 218.53125 446.816406 217.5625 446.695312 C 217.5625 446.816406 221.804688 455.546875 222.65625 457.242188 C 223.746094 459.0625 224.714844 461.003906 225.808594 462.820312 C 227.867188 466.339844 230.660156 469.613281 233.203125 472.765625 C 242.179688 484.164062 251.515625 495.5625 261.21875 506.476562 C 270.433594 516.785156 280.621094 525.273438 293.960938 529.277344 C 306.207031 532.914062 319.304688 531.335938 331.550781 529.15625 C 337.734375 528.0625 343.921875 526.972656 350.226562 526.972656 C 357.140625 526.972656 363.929688 527.941406 370.71875 527.820312 C 376.054688 527.699219 382.363281 524.789062 386.242188 521.273438 C 388.910156 518.96875 391.578125 516.785156 394.367188 514.722656 C 397.640625 512.296875 401.28125 511.691406 405.160156 510.84375 C 418.136719 508.175781 430.261719 505.265625 443.480469 507.933594 C 446.027344 508.417969 448.453125 509.023438 450.878906 509.875 C 450.878906 509.875 451 509.996094 451 509.996094 C 452.210938 511.085938 453.546875 511.449219 454.636719 511.085938 C 457.0625 511.933594 459.488281 512.90625 461.914062 513.996094 C 464.824219 515.332031 467.613281 516.90625 470.644531 517.996094 C 473.917969 519.332031 477.796875 521.515625 481.316406 522 C 483.621094 522.363281 485.800781 522.605469 487.984375 522.96875 C 489.5625 523.210938 490.773438 522.363281 491.257812 521.152344 C 493.199219 525.394531 495.382812 529.398438 497.6875 533.398438 C 501.082031 539.21875 504.839844 545.648438 509.933594 550.253906 C 515.148438 554.984375 521.089844 559.351562 526.910156 563.351562 C 533.21875 567.597656 538.917969 573.296875 545.585938 576.933594 C 552.863281 580.933594 560.625 584.089844 568.261719 587.484375 C 575.417969 590.636719 582.816406 593.667969 590.089844 596.578125 C 597.125 599.367188 603.550781 603.492188 610.101562 607.25 C 616.890625 611.25 624.046875 614.527344 629.988281 619.617188 C 631.683594 621.074219 633.261719 622.285156 634.960938 623.621094 C 629.015625 621.679688 623.074219 619.496094 617.011719 618.042969 C 611.070312 616.707031 604.765625 616.707031 598.820312 617.921875 C 597.003906 618.285156 595.183594 618.527344 593.363281 618.648438 C 588.152344 614.40625 579.175781 615.375 572.871094 615.132812 C 572.507812 615.132812 572.023438 615.132812 571.414062 615.375 C 567.65625 614.527344 563.65625 614.648438 559.652344 614.285156 C 554.074219 613.796875 548.496094 612.464844 543.28125 610.402344 C 537.945312 608.339844 532.367188 607.25 526.789062 605.671875 C 520.605469 603.976562 514.785156 603.371094 508.480469 603.25 C 502.414062 603.125 496.109375 601.1875 490.167969 600.214844 C 483.375 599.125 476.585938 598.035156 469.917969 596.335938 C 464.460938 594.878906 458.882812 592.699219 453.179688 592.699219 C 447.238281 592.699219 440.8125 593.667969 434.992188 595 C 429.292969 596.335938 423.230469 596.214844 417.40625 597.425781 C 410.980469 598.761719 404.3125 602.15625 398.371094 605.066406 C 386.484375 611.007812 373.386719 612.464844 360.535156 615.738281 C 354.472656 617.195312 348.769531 619.132812 342.585938 619.863281 C 336.523438 620.589844 329.976562 619.863281 323.910156 619.496094 C 317.484375 619.132812 310.816406 618.890625 304.386719 619.863281 C 303.78125 619.984375 303.175781 620.105469 302.449219 620.347656 C 301.476562 620.953125 300.386719 621.679688 299.417969 622.40625 C 299.171875 622.53125 293.714844 626.53125 293.351562 626.894531 C 296.503906 628.472656 299.78125 629.925781 303.175781 631.140625 C 309.722656 633.441406 316.515625 635.019531 323.0625 637.324219 C 336.28125 641.933594 348.648438 648.480469 361.140625 654.785156 C 373.507812 661.09375 386 666.792969 399.339844 671.035156 C 412.558594 675.28125 426.140625 677.585938 439.84375 679.28125 C 452.816406 680.859375 465.671875 680.496094 478.40625 677.828125 C 484.710938 676.492188 490.53125 673.824219 495.988281 670.550781 C 502.292969 666.792969 507.507812 661.578125 514.058594 657.816406 C 520.121094 654.421875 526.667969 653.089844 533.460938 651.632812 C 541.097656 650.058594 547.40625 647.144531 553.832031 642.78125 C 559.652344 638.898438 565.109375 634.65625 571.78125 632.351562 C 578.207031 630.167969 585.363281 630.410156 592.03125 630.410156 C 597.003906 630.410156 601.976562 629.441406 606.945312 629.441406 C 612.402344 629.441406 617.738281 630.898438 622.953125 632.714844 C 631.078125 635.503906 639.6875 637.929688 648.175781 637.566406 C 658.605469 648.238281 668.308594 659.878906 680.917969 668.125 C 683.707031 669.945312 686.132812 668.125 686.859375 665.578125 C 678.738281 656.726562 670.976562 647.875 664.425781 638.171875 Z M 629.382812 553.042969 C 625.863281 548.679688 621.621094 545.039062 617.253906 541.644531 C 612.402344 537.886719 608.523438 532.914062 604.765625 528.0625 C 601.125 523.332031 597.125 518.96875 593 514.601562 C 588.636719 509.996094 584.996094 504.902344 580.753906 500.171875 C 576.996094 495.925781 572.871094 492.53125 569.597656 487.925781 C 566.445312 483.4375 566.566406 476.160156 566.082031 470.824219 C 565.59375 465.730469 564.503906 460.640625 564.261719 455.546875 C 564.019531 449.847656 565.109375 444.148438 566.082031 438.570312 C 568.019531 427.777344 569.476562 416.621094 573.960938 406.433594 C 578.449219 396.246094 584.269531 386.667969 589.121094 376.722656 C 587.058594 388.484375 584.996094 400.25 583.664062 412.132812 C 582.9375 418.4375 583.421875 424.257812 584.511719 430.566406 C 585.726562 437.71875 586.574219 444.753906 589 451.542969 C 591.425781 458.214844 594.699219 464.519531 597.367188 471.066406 C 600.277344 478.34375 601.976562 485.984375 604.523438 493.382812 C 606.824219 500.050781 610.34375 505.871094 613.859375 511.933594 C 617.496094 518.121094 620.40625 524.667969 624.046875 530.851562 C 627.441406 536.671875 628.894531 543.585938 629.625 550.132812 C 629.746094 551.347656 629.867188 552.558594 629.867188 553.773438 C 629.625 553.40625 629.503906 553.285156 629.382812 553.042969 Z M 641.144531 544.3125 C 639.808594 538.25 637.75 532.429688 635.082031 527.457031 C 631.804688 521.273438 628.046875 514.964844 624.167969 509.144531 C 620.042969 502.960938 616.164062 497.019531 613.496094 490.105469 C 610.949219 483.316406 609.371094 476.28125 606.824219 469.613281 C 604.277344 462.941406 601.003906 456.636719 598.09375 450.210938 C 595.183594 443.90625 594.09375 437.355469 592.515625 430.6875 C 590.941406 423.773438 590.089844 417.589844 590.941406 410.433594 C 592.515625 396.609375 596.03125 383.148438 597.609375 369.445312 C 597.609375 369.203125 597.609375 368.960938 597.730469 368.71875 C 599.429688 378.785156 603.066406 387.757812 608.523438 396.851562 C 620.527344 416.863281 638.839844 432.382812 648.785156 453.726562 C 658 473.613281 657.394531 495.925781 653.875 517.027344 C 653.027344 522.121094 650.964844 525.636719 647.691406 529.519531 C 644.296875 533.398438 642.964844 538.855469 641.628906 543.707031 C 641.265625 543.828125 641.144531 544.070312 641.144531 544.3125 Z M 507.628906 163.417969 C 507.628906 162.808594 507.628906 162.324219 507.628906 161.71875 C 511.390625 174.085938 516.96875 185.851562 522.425781 197.371094 C 528.730469 210.710938 536.855469 222.835938 544.132812 235.570312 C 547.648438 241.632812 550.074219 248.179688 553.105469 254.367188 C 556.378906 261.277344 560.015625 268.191406 562.925781 275.34375 C 565.472656 281.527344 567.050781 288.199219 568.140625 294.746094 C 569.234375 301.78125 568.382812 307.722656 566.203125 314.511719 C 564.140625 321.425781 561.835938 328.214844 559.652344 335.128906 C 557.226562 342.285156 553.347656 348.46875 550.316406 355.378906 C 547.890625 360.714844 547.285156 366.777344 546.554688 372.480469 C 545.707031 378.664062 544.375 384.605469 542.3125 390.546875 C 543.886719 383.027344 544.859375 375.511719 544.738281 367.507812 C 544.496094 353.925781 541.21875 339.738281 538.554688 326.519531 C 535.640625 312.089844 532.003906 297.777344 526.667969 284.074219 C 521.210938 270.007812 515.390625 256.667969 512.722656 241.632812 C 509.570312 224.171875 508.601562 206.585938 507.871094 189.003906 C 507.386719 180.394531 507.386719 171.785156 507.628906 163.417969 Z M 519.394531 428.140625 C 518.90625 433.597656 518.542969 439.054688 518.179688 444.390625 C 516.605469 439.054688 515.148438 433.71875 513.691406 428.261719 C 509.933594 414.4375 507.628906 400.007812 506.417969 385.816406 C 505.933594 379.996094 508.601562 373.8125 509.328125 367.992188 C 510.175781 361.445312 509.8125 355.015625 507.992188 348.589844 C 505.933594 341.796875 502.535156 335.371094 501.324219 328.460938 C 499.988281 321.0625 498.65625 313.542969 495.988281 306.511719 C 491.136719 293.535156 485.316406 281.285156 483.621094 267.339844 C 481.921875 253.515625 481.074219 239.570312 480.953125 225.625 C 480.832031 212.285156 481.558594 199.066406 488.347656 187.304688 C 491.5 181.847656 492.835938 175.179688 495.261719 169.359375 C 495.867188 167.78125 496.59375 166.328125 497.199219 164.871094 C 496.957031 168.996094 496.835938 173.238281 496.835938 177.484375 C 496.59375 192.035156 497.324219 206.585938 498.777344 221.136719 C 500.234375 235.570312 502.292969 250.242188 506.902344 264.066406 C 511.753906 278.253906 518.058594 291.59375 522.183594 306.023438 C 526.183594 320.089844 528.125 334.765625 529.941406 349.316406 C 531.519531 362.292969 532.125 374.054688 529.578125 387.03125 C 526.789062 400.976562 520.605469 414.316406 519.394531 428.140625 Z M 164.324219 129.703125 C 177.785156 134.917969 190.519531 142.074219 203.496094 148.378906 C 209.558594 151.410156 215.621094 154.5625 221.199219 158.445312 C 227.382812 162.808594 232.71875 168.996094 237.8125 174.453125 C 248 185.488281 257.699219 197.976562 263.886719 211.679688 C 270.070312 225.261719 274.554688 239.449219 280.621094 253.03125 C 283.410156 259.335938 286.804688 265.523438 290.683594 271.222656 C 292.988281 274.617188 296.140625 277.40625 299.417969 279.953125 C 293.230469 278.132812 286.925781 276.4375 280.5 274.496094 C 274.679688 272.675781 268.734375 270.25 263.765625 266.492188 C 258.429688 262.492188 254.0625 257.277344 249.574219 252.425781 C 239.269531 241.148438 230.902344 226.960938 223.503906 213.621094 C 215.621094 199.554688 205.554688 186.578125 195.492188 173.964844 C 190.761719 168.023438 186.515625 161.476562 181.425781 155.777344 C 176.089844 149.835938 170.269531 144.257812 164.445312 138.800781 C 157.777344 132.613281 150.5 127.398438 142.984375 122.429688 C 150.136719 124.609375 157.292969 126.914062 164.324219 129.703125 Z M 286.925781 297.171875 C 273.34375 294.746094 260.488281 289.53125 248.484375 282.863281 C 235.871094 275.949219 224.714844 266.613281 212.953125 258.488281 C 200.828125 250.121094 188.820312 241.632812 179.726562 229.75 C 170.996094 218.105469 163.597656 205.375 155.472656 193.367188 C 146.863281 180.636719 141.769531 166.570312 135.34375 152.746094 C 129.039062 139.40625 120.304688 127.277344 110.605469 116.121094 C 107.453125 112.484375 103.933594 109.210938 100.417969 105.9375 C 100.539062 106.058594 100.660156 106.058594 100.78125 106.179688 C 102.480469 107.511719 104.054688 109.089844 105.875 110.179688 C 107.574219 111.273438 109.390625 112.121094 111.210938 112.847656 C 113.515625 114.304688 115.820312 115.757812 118.246094 117.214844 C 130.492188 124.367188 142.984375 131.402344 154.140625 140.253906 C 159.476562 144.5 164.082031 149.714844 168.933594 154.5625 C 174.148438 159.777344 178.878906 165.355469 182.757812 171.660156 C 184.699219 174.695312 187.246094 177.363281 189.429688 180.152344 C 191.609375 182.941406 193.429688 185.851562 195.734375 188.640625 C 200.464844 194.339844 204.34375 200.644531 208.464844 206.949219 C 223.867188 230.597656 235.75 258.851562 259.277344 276.070312 C 269.585938 283.589844 282.925781 286.5 294.929688 289.773438 C 304.023438 292.199219 312.511719 296.6875 321 301.054688 C 309.480469 299.71875 298.082031 299.234375 286.925781 297.171875 Z M 414.496094 281.894531 C 410.253906 277.648438 406.980469 272.554688 402.734375 268.433594 C 398.371094 264.066406 393.882812 259.09375 390.488281 253.878906 C 383.9375 243.695312 373.265625 236.296875 363.566406 229.382812 C 352.652344 221.503906 342.464844 213.378906 332.277344 204.644531 C 327.308594 200.402344 322.335938 196.398438 318.089844 191.550781 C 313.847656 186.699219 310.328125 181.242188 306.570312 176.027344 C 299.171875 165.597656 290.320312 156.625 286.804688 144.011719 C 285.105469 137.707031 281.832031 131.523438 279.527344 125.460938 C 278.679688 123.15625 277.710938 120.972656 276.859375 118.667969 C 280.257812 122.550781 284.015625 126.066406 288.257812 129.339844 C 301.113281 146.074219 315.300781 162.203125 330.460938 176.875 C 340.160156 186.335938 351.4375 193.855469 361.867188 202.464844 C 373.144531 211.800781 383.453125 223.199219 392.304688 234.964844 C 405.039062 251.941406 416.316406 270.25 423.835938 290.019531 C 420.441406 287.230469 417.285156 284.683594 414.496094 281.894531 Z M 401.28125 230.839844 C 392.304688 220.167969 382.96875 209.980469 372.902344 200.402344 C 362.597656 190.699219 350.347656 183.425781 339.433594 174.453125 C 329.003906 165.839844 318.453125 156.988281 309.480469 146.800781 C 306.933594 143.890625 304.386719 140.980469 301.960938 137.949219 C 305.964844 140.132812 309.964844 142.195312 313.605469 144.742188 C 319.546875 148.863281 325.367188 152.867188 331.429688 156.867188 C 343.316406 164.75 355.683594 172.027344 369.144531 176.996094 C 375.085938 179.179688 381.269531 181.484375 386.847656 184.515625 C 392.425781 187.546875 397.398438 191.429688 402.492188 195.1875 C 413.042969 203.191406 422.863281 210.832031 430.019531 221.988281 C 434.144531 228.414062 436.6875 234.113281 437.902344 241.632812 C 438.992188 248.058594 439.476562 254.609375 439.476562 261.15625 C 439.476562 271.828125 437.296875 282.5 436.933594 293.171875 C 429.535156 270.371094 416.679688 249.152344 401.28125 230.839844 Z M 219.257812 335.976562 C 215.257812 333.429688 211.378906 330.519531 207.375 327.851562 C 211.742188 329.671875 215.863281 331.734375 220.59375 332.582031 C 225.445312 333.429688 229.566406 335.128906 234.539062 335.128906 C 240.238281 335.128906 246.179688 335.976562 251.878906 336.21875 C 257.699219 336.460938 263.519531 336.097656 268.976562 333.792969 C 271.160156 332.824219 273.101562 331.25 275.40625 330.398438 C 277.832031 329.550781 280.863281 329.914062 283.53125 329.792969 C 285.835938 329.671875 288.015625 329.1875 290.199219 328.582031 C 292.867188 327.972656 296.75 325.792969 299.539062 326.398438 C 302.207031 327.003906 304.265625 327.972656 307.054688 328.214844 C 309.964844 328.582031 312.753906 328.945312 315.664062 329.1875 C 321 329.550781 325.609375 332.460938 330.582031 334.160156 C 332.765625 334.886719 335.3125 335.128906 337.371094 336.097656 C 339.675781 337.191406 341.617188 339.128906 343.800781 340.464844 C 345.859375 341.675781 348.164062 342.648438 350.226562 343.617188 C 353.136719 344.953125 355.804688 347.375 358.351562 349.316406 C 362.960938 352.832031 368.417969 355.378906 373.144531 358.777344 C 375.328125 360.351562 377.148438 362.777344 379.089844 364.597656 C 379.332031 364.71875 379.453125 364.960938 379.695312 365.082031 C 376.054688 364.113281 372.417969 363.503906 368.78125 363.019531 C 362.109375 362.171875 356.167969 360.230469 349.863281 358.167969 C 343.800781 356.109375 337.859375 357.078125 331.671875 357.320312 C 325.367188 357.5625 319.0625 359.140625 312.753906 359.746094 C 306.570312 360.351562 300.507812 358.53125 294.324219 359.261719 C 288.382812 359.988281 282.558594 360.714844 276.617188 360.957031 C 273.464844 361.078125 270.554688 359.867188 267.523438 359.261719 C 263.765625 358.410156 260.488281 357.5625 256.851562 356.109375 C 243.875 350.53125 231.386719 343.617188 219.257812 335.976562 Z M 374.238281 384.847656 C 363.6875 386.910156 352.53125 389.699219 341.738281 388.851562 C 336.523438 388.484375 331.308594 388 326.09375 388.242188 C 320.394531 388.484375 314.695312 388 308.996094 387.757812 C 298.203125 387.515625 287.773438 392.125 277.222656 389.335938 C 272.738281 388.121094 268.492188 386.058594 264.007812 384.726562 C 259.035156 383.269531 255.03125 379.875 251.636719 375.996094 C 248.242188 371.871094 245.332031 367.386719 241.9375 363.261719 C 239.511719 360.351562 236.84375 357.5625 234.054688 355.015625 C 237.328125 356.835938 240.601562 358.410156 243.875 359.988281 C 250.0625 362.898438 256.246094 366.535156 263.035156 367.871094 C 269.101562 368.960938 274.191406 370.539062 280.5 370.175781 C 283.773438 370.054688 286.925781 369.566406 290.199219 369.445312 C 293.109375 369.324219 295.898438 368.113281 298.808594 368.597656 C 311.300781 370.539062 324.15625 367.992188 336.765625 366.65625 C 343.070312 366.050781 348.042969 368.234375 353.863281 370.054688 C 360.777344 372.234375 368.054688 372.722656 375.085938 374.175781 C 379.816406 375.148438 383.574219 376.964844 387.457031 379.269531 C 383.089844 380.847656 378.964844 383.878906 374.238281 384.847656 Z M 417.527344 497.503906 C 411.34375 498.59375 405.28125 500.050781 399.097656 501.382812 C 391.941406 502.960938 386.726562 507.328125 381.269531 512.054688 C 376.054688 516.542969 370.476562 517.632812 363.808594 516.90625 C 357.015625 516.300781 350.105469 516.058594 343.4375 516.664062 C 330.339844 517.753906 317.96875 522 304.75 520.664062 C 290.320312 519.210938 279.527344 511.691406 269.585938 501.628906 C 259.035156 490.957031 249.332031 479.3125 239.632812 467.914062 C 236.359375 464.035156 233.082031 460.152344 230.050781 456.03125 C 234.296875 458.09375 238.539062 460.152344 243.027344 461.609375 C 247.878906 463.1875 252.242188 465.730469 257.09375 467.066406 C 259.519531 467.792969 262.429688 467.792969 264.976562 468.277344 C 267.160156 468.765625 269.34375 469.007812 271.644531 469.128906 C 275.890625 469.25 279.769531 472.160156 283.652344 473.613281 C 286.078125 474.464844 288.382812 474.585938 290.925781 474.707031 C 293.472656 474.828125 296.019531 475.433594 298.445312 475.3125 C 308.996094 475.070312 319.0625 480.042969 329.367188 481.859375 C 334.097656 482.710938 338.707031 484.164062 343.4375 484.890625 C 348.042969 485.621094 352.894531 484.648438 357.625 484.042969 C 362.71875 483.4375 367.808594 482.832031 373.023438 482.953125 C 378.601562 483.074219 384.300781 484.648438 389.757812 485.863281 C 395.457031 487.195312 401.28125 488.046875 406.980469 489.257812 C 412.921875 490.46875 418.621094 493.382812 424.199219 495.683594 C 424.683594 495.925781 425.167969 496.046875 425.652344 496.292969 C 422.984375 496.65625 420.195312 497.019531 417.527344 497.503906 Z M 433.050781 490.105469 C 427.472656 487.804688 422.015625 485.136719 416.558594 482.832031 C 411.222656 480.527344 405.644531 479.558594 400.066406 478.464844 C 389.273438 476.28125 378.722656 473.25 367.566406 473.734375 C 362.472656 473.855469 357.382812 474.707031 352.410156 475.3125 C 347.195312 475.917969 343.4375 475.191406 338.34375 474.101562 C 332.644531 472.765625 326.699219 472.160156 321.121094 470.460938 C 316.273438 468.886719 311.421875 467.429688 306.328125 466.582031 C 301.597656 465.730469 296.503906 465.609375 291.65625 465.488281 C 285.957031 465.246094 282.074219 462.335938 276.738281 460.640625 C 272.617188 459.304688 267.765625 459.425781 263.398438 458.457031 C 260.730469 457.972656 258.308594 457.851562 255.882812 456.878906 C 253.457031 455.910156 251.03125 454.695312 248.605469 453.726562 C 246.90625 453.121094 245.210938 452.394531 243.511719 451.785156 C 243.875 451.785156 244.238281 451.90625 244.605469 451.90625 C 251.394531 452.878906 257.820312 454.332031 264.734375 454.695312 C 269.828125 454.941406 275.648438 452.273438 280.257812 450.210938 C 286.5625 447.542969 292.019531 445.601562 298.929688 444.753906 C 304.996094 444.027344 311.058594 443.78125 317.121094 443.296875 C 324.03125 442.570312 330.945312 441.601562 337.859375 441.359375 C 343.921875 441.238281 349.863281 442.085938 355.804688 441.722656 C 361.988281 441.238281 367.445312 442.570312 373.144531 444.875 C 378.359375 446.9375 383.816406 448.875 389.03125 451.179688 C 394.488281 453.484375 398.976562 457.730469 403.949219 460.882812 C 409.039062 464.15625 414.132812 467.308594 418.621094 471.433594 C 423.230469 475.675781 426.867188 480.648438 430.382812 485.742188 C 431.960938 488.046875 434.144531 489.863281 436.082031 491.804688 C 434.992188 490.957031 434.019531 490.59375 433.050781 490.105469 Z M 554.4375 625.195312 C 546.554688 628.714844 537.097656 629.320312 528.609375 630.167969 C 520.121094 631.019531 511.269531 632.230469 502.65625 632.230469 C 498.171875 632.230469 493.804688 630.777344 489.320312 630.777344 C 485.074219 630.777344 480.953125 630.410156 476.707031 630.167969 C 468.21875 629.804688 459.972656 631.625 451.484375 631.382812 C 447.359375 631.261719 443.238281 631.019531 439.113281 630.777344 C 434.871094 630.53125 430.503906 631.261719 426.382812 631.019531 C 422.621094 630.777344 418.863281 631.382812 415.226562 632.109375 C 414.253906 632.351562 413.285156 632.472656 412.195312 632.59375 C 410.132812 633.6875 408.070312 634.898438 406.007812 635.867188 C 406.371094 636.839844 406.980469 637.6875 407.707031 638.414062 C 411.34375 638.292969 415.105469 637.929688 418.621094 637.445312 C 426.988281 636.476562 435.71875 637.324219 444.085938 637.445312 C 448.332031 637.566406 452.453125 637.929688 456.699219 638.050781 C 460.941406 638.171875 464.945312 637.203125 469.066406 636.839844 C 478.40625 636.109375 487.984375 637.566406 497.199219 638.65625 C 505.691406 639.628906 514.300781 638.414062 522.789062 637.808594 C 527.03125 637.445312 531.277344 637.082031 535.398438 636.71875 C 537.945312 636.476562 540.613281 636.355469 543.28125 636.109375 C 543.039062 636.234375 542.796875 636.476562 542.554688 636.597656 C 536.371094 640.234375 528.730469 640.960938 521.816406 642.78125 C 515.027344 644.480469 509.085938 648.238281 503.265625 651.996094 C 500.597656 653.695312 498.171875 656.484375 495.746094 658.546875 C 492.957031 660.726562 489.804688 662.667969 486.53125 664.246094 C 480.101562 667.398438 473.070312 668.609375 466.035156 669.339844 C 452.695312 670.792969 439.234375 668.972656 426.140625 666.792969 C 412.195312 664.488281 398.734375 660.484375 385.636719 655.027344 C 372.660156 649.570312 360.414062 642.78125 347.679688 636.839844 C 338.34375 632.472656 328.640625 628.835938 318.699219 625.925781 C 317.96875 625.683594 317.363281 625.5625 316.636719 625.320312 C 318.089844 625.441406 319.425781 625.441406 320.878906 625.5625 C 332.886719 626.410156 344.042969 627.621094 355.925781 624.832031 C 368.417969 621.921875 380.90625 619.253906 393.277344 616.222656 C 399.460938 614.648438 405.160156 610.644531 411.222656 608.460938 C 417.894531 606.039062 423.835938 604.460938 430.867188 603.976562 C 436.6875 603.492188 442.390625 602.519531 448.210938 601.792969 C 455 600.945312 460.457031 603.003906 466.882812 604.824219 C 472.949219 606.523438 479.011719 607.855469 485.195312 608.828125 C 491.867188 609.917969 498.535156 611.738281 505.203125 612.464844 C 511.023438 613.070312 516.605469 613.070312 522.304688 614.285156 C 528.246094 615.496094 534.671875 617.195312 540.371094 619.496094 C 545.585938 621.558594 551.285156 623.015625 557.105469 623.863281 C 556.378906 624.347656 555.53125 624.832031 554.4375 625.195312 Z M 554.4375 625.195312 " fill-opacity="1" fill-rule="nonzero"/></g><g transform="matrix(1, 0, 0, 1, 186, -0.000000000000057351)"><g clip-path="url(#2c615a7970)"><g fill="#ffffff" fill-opacity="1"><g transform="translate(0.80746, 615.012722)"><g><path d="M 171.578125 0 L 64.5625 0 L 64.5625 -512.984375 L 358.59375 -512.984375 L 358.59375 -423.859375 L 171.578125 -423.859375 L 171.578125 -291.578125 L 345.609375 -291.578125 L 345.609375 -202.8125 L 171.578125 -202.8125 Z M 171.578125 0 "/></g></g></g></g></g></svg>