<?xml version="1.0" encoding="UTF-8" ?>
<svg version="1.1" width="32" height="32" xmlns="http://www.w3.org/2000/svg" shape-rendering="crispEdges">
<rect x="14" y="4" width="4" height="1" fill="#14310E" />
<rect x="12" y="5" width="4" height="1" fill="#14310E" />
<rect x="16" y="5" width="2" height="1" fill="#524B24" />
<rect x="18" y="5" width="2" height="1" fill="#14310E" />
<rect x="10" y="6" width="2" height="1" fill="#14310E" />
<rect x="12" y="6" width="3" height="2" fill="#524B24" />
<rect x="15" y="6" width="2" height="1" fill="#14310E" />
<rect x="17" y="6" width="4" height="1" fill="#524B24" />
<rect x="21" y="6" width="2" height="1" fill="#14310E" />
<rect x="9" y="7" width="2" height="1" fill="#14310E" />
<rect x="11" y="7" width="1" height="2" fill="#524B24" />
<rect x="15" y="7" width="1" height="2" fill="#524B24" />
<rect x="16" y="7" width="1" height="1" fill="#14310E" />
<rect x="17" y="7" width="1" height="2" fill="#524B24" />
<rect x="18" y="7" width="1" height="10" fill="#4B692F" />
<rect x="19" y="7" width="4" height="1" fill="#524B24" />
<rect x="23" y="7" width="1" height="1" fill="#14310E" />
<rect x="8" y="8" width="1" height="1" fill="#14310E" />
<rect x="9" y="8" width="2" height="1" fill="#524B24" />
<rect x="12" y="8" width="3" height="8" fill="#4B692F" />
<rect x="16" y="8" width="1" height="2" fill="#524B24" />
<rect x="19" y="8" width="2" height="11" fill="#4B692F" />
<rect x="21" y="8" width="3" height="2" fill="#524B24" />
<rect x="24" y="8" width="1" height="1" fill="#14310E" />
<rect x="7" y="9" width="1" height="2" fill="#14310E" />
<rect x="8" y="9" width="2" height="1" fill="#524B24" />
<rect x="10" y="9" width="2" height="2" fill="#4B692F" />
<rect x="15" y="9" width="1" height="5" fill="#4B692F" />
<rect x="17" y="9" width="1" height="8" fill="#4B692F" />
<rect x="24" y="9" width="1" height="9" fill="#524B24" />
<rect x="25" y="9" width="1" height="1" fill="#14310E" />
<rect x="8" y="10" width="1" height="2" fill="#524B24" />
<rect x="9" y="10" width="1" height="2" fill="#4B692F" />
<rect x="16" y="10" width="1" height="6" fill="#4B692F" />
<rect x="21" y="10" width="3" height="1" fill="#4B692F" />
<rect x="25" y="10" width="1" height="6" fill="#524B24" />
<rect x="6" y="11" width="1" height="6" fill="#14310E" />
<rect x="7" y="11" width="1" height="6" fill="#524B24" />
<rect x="10" y="11" width="1" height="2" fill="#14310E" />
<rect x="11" y="11" width="1" height="8" fill="#4B692F" />
<rect x="21" y="11" width="1" height="2" fill="#4B692F" />
<rect x="22" y="11" width="1" height="3" fill="#14310E" />
<rect x="23" y="11" width="1" height="3" fill="#4B692F" />
<rect x="26" y="11" width="1" height="5" fill="#14310E" />
<rect x="8" y="12" width="1" height="3" fill="#4B692F" />
<rect x="9" y="12" width="1" height="3" fill="#14310E" />
<rect x="10" y="13" width="1" height="1" fill="#524B24" />
<rect x="21" y="13" width="1" height="1" fill="#524B24" />
<rect x="10" y="14" width="1" height="2" fill="#14310E" />
<rect x="15" y="14" width="1" height="3" fill="#14310E" />
<rect x="21" y="14" width="1" height="2" fill="#14310E" />
<rect x="22" y="14" width="1" height="3" fill="#4B692F" />
<rect x="23" y="14" width="1" height="5" fill="#524B24" />
<rect x="8" y="15" width="1" height="4" fill="#524B24" />
<rect x="9" y="15" width="1" height="3" fill="#4B692F" />
<rect x="10" y="16" width="1" height="2" fill="#4B692F" />
<rect x="12" y="16" width="2" height="1" fill="#4B692F" />
<rect x="14" y="16" width="1" height="3" fill="#14310E" />
<rect x="16" y="16" width="1" height="2" fill="#14310E" />
<rect x="21" y="16" width="1" height="1" fill="#4B692F" />
<rect x="25" y="16" width="1" height="2" fill="#14310E" />
<rect x="7" y="17" width="1" height="2" fill="#14310E" />
<rect x="12" y="17" width="1" height="1" fill="#4B692F" />
<rect x="13" y="17" width="1" height="2" fill="#14310E" />
<rect x="15" y="17" width="1" height="2" fill="#413C1F" />
<rect x="17" y="17" width="2" height="1" fill="#14310E" />
<rect x="21" y="17" width="2" height="3" fill="#524B24" />
<rect x="9" y="18" width="2" height="2" fill="#524B24" />
<rect x="12" y="18" width="1" height="1" fill="#14310E" />
<rect x="16" y="18" width="1" height="2" fill="#413C1F" />
<rect x="17" y="18" width="1" height="1" fill="#14310E" />
<rect x="18" y="18" width="1" height="1" fill="#4B692F" />
<rect x="24" y="18" width="1" height="1" fill="#14310E" />
<rect x="8" y="19" width="1" height="1" fill="#14310E" />
<rect x="11" y="19" width="1" height="2" fill="#524B24" />
<rect x="12" y="19" width="2" height="1" fill="#412007" />
<rect x="14" y="19" width="2" height="1" fill="#524B24" />
<rect x="17" y="19" width="1" height="6" fill="#413C1F" />
<rect x="18" y="19" width="2" height="1" fill="#14310E" />
<rect x="20" y="19" width="1" height="1" fill="#524B24" />
<rect x="23" y="19" width="1" height="1" fill="#14310E" />
<rect x="9" y="20" width="1" height="1" fill="#14310E" />
<rect x="10" y="20" width="1" height="1" fill="#524B24" />
<rect x="12" y="20" width="1" height="1" fill="#524B24" />
<rect x="13" y="20" width="2" height="2" fill="#412007" />
<rect x="15" y="20" width="2" height="1" fill="#14310E" />
<rect x="18" y="20" width="2" height="1" fill="#413C1F" />
<rect x="20" y="20" width="3" height="1" fill="#14310E" />
<rect x="10" y="21" width="2" height="1" fill="#14310E" />
<rect x="15" y="21" width="1" height="4" fill="#412007" />
<rect x="16" y="21" width="1" height="9" fill="#413C1F" />
<rect x="14" y="22" width="1" height="8" fill="#412007" />
<rect x="15" y="25" width="1" height="6" fill="#413C1F" />
<rect x="17" y="25" width="1" height="4" fill="#412007" />
<rect x="13" y="29" width="1" height="2" fill="#412007" />
<rect x="17" y="29" width="2" height="2" fill="#413C1F" />
<rect x="12" y="30" width="1" height="2" fill="#412007" />
<rect x="14" y="30" width="1" height="2" fill="#413C1F" />
<rect x="16" y="30" width="1" height="2" fill="#412007" />
<rect x="19" y="30" width="1" height="2" fill="#413C1F" />
<rect x="11" y="31" width="1" height="1" fill="#412007" />
<rect x="13" y="31" width="1" height="1" fill="#413C1F" />
<rect x="15" y="31" width="1" height="1" fill="#412007" />
<rect x="17" y="31" width="1" height="1" fill="#412007" />
<rect x="18" y="31" width="1" height="1" fill="#413C1F" />
<rect x="20" y="31" width="1" height="1" fill="#413C1F" />
</svg>