<?xml version="1.0" encoding="UTF-8" ?>
<svg version="1.1" width="32" height="32" xmlns="http://www.w3.org/2000/svg" shape-rendering="crispEdges">
<rect x="7" y="3" width="14" height="1" fill="#222034" />
<rect x="6" y="4" width="2" height="1" fill="#222034" />
<rect x="8" y="4" width="11" height="2" fill="#EAC8C8" />
<rect x="19" y="4" width="1" height="5" fill="#222034" />
<rect x="20" y="4" width="1" height="1" fill="#C6A6A6" />
<rect x="21" y="4" width="1" height="1" fill="#222034" />
<rect x="6" y="5" width="1" height="23" fill="#222034" />
<rect x="7" y="5" width="1" height="22" fill="#EAC8C8" />
<rect x="20" y="5" width="2" height="3" fill="#EAC8C8" />
<rect x="22" y="5" width="1" height="1" fill="#222034" />
<rect x="8" y="6" width="5" height="1" fill="#EAC8C8" />
<rect x="13" y="6" width="3" height="1" fill="#14310E" />
<rect x="16" y="6" width="3" height="1" fill="#EAC8C8" />
<rect x="22" y="6" width="1" height="2" fill="#EAC8C8" />
<rect x="23" y="6" width="1" height="1" fill="#222034" />
<rect x="8" y="7" width="4" height="1" fill="#EAC8C8" />
<rect x="12" y="7" width="1" height="1" fill="#14310E" />
<rect x="13" y="7" width="1" height="1" fill="#524B24" />
<rect x="14" y="7" width="1" height="4" fill="#4B692F" />
<rect x="15" y="7" width="1" height="1" fill="#524B24" />
<rect x="16" y="7" width="1" height="1" fill="#14310E" />
<rect x="17" y="7" width="2" height="1" fill="#EAC8C8" />
<rect x="23" y="7" width="1" height="1" fill="#EAC8C8" />
<rect x="24" y="7" width="1" height="2" fill="#222034" />
<rect x="8" y="8" width="3" height="1" fill="#EAC8C8" />
<rect x="11" y="8" width="1" height="1" fill="#14310E" />
<rect x="12" y="8" width="1" height="1" fill="#524B24" />
<rect x="13" y="8" width="1" height="4" fill="#4B692F" />
<rect x="15" y="8" width="2" height="2" fill="#4B692F" />
<rect x="17" y="8" width="1" height="1" fill="#103C07" />
<rect x="18" y="8" width="1" height="1" fill="#EAC8C8" />
<rect x="20" y="8" width="4" height="1" fill="#222034" />
<rect x="25" y="8" width="1" height="20" fill="#222034" />
<rect x="8" y="9" width="2" height="11" fill="#EAC8C8" />
<rect x="10" y="9" width="1" height="4" fill="#14310E" />
<rect x="11" y="9" width="2" height="2" fill="#4B692F" />
<rect x="17" y="9" width="1" height="3" fill="#4B692F" />
<rect x="18" y="9" width="1" height="1" fill="#14310E" />
<rect x="19" y="9" width="1" height="1" fill="#EAC8C8" />
<rect x="20" y="9" width="5" height="1" fill="#C6A6A6" />
<rect x="15" y="10" width="1" height="1" fill="#524B24" />
<rect x="16" y="10" width="1" height="1" fill="#4B692F" />
<rect x="18" y="10" width="1" height="1" fill="#524B24" />
<rect x="19" y="10" width="1" height="2" fill="#14310E" />
<rect x="20" y="10" width="5" height="10" fill="#EAC8C8" />
<rect x="11" y="11" width="1" height="1" fill="#524B24" />
<rect x="12" y="11" width="1" height="1" fill="#4B692F" />
<rect x="14" y="11" width="1" height="1" fill="#524B24" />
<rect x="15" y="11" width="1" height="1" fill="#14310E" />
<rect x="16" y="11" width="1" height="1" fill="#524B24" />
<rect x="18" y="11" width="1" height="3" fill="#14310E" />
<rect x="11" y="12" width="1" height="2" fill="#14310E" />
<rect x="12" y="12" width="2" height="1" fill="#524B24" />
<rect x="14" y="12" width="1" height="1" fill="#14310E" />
<rect x="15" y="12" width="1" height="1" fill="#103C07" />
<rect x="16" y="12" width="1" height="1" fill="#14310E" />
<rect x="17" y="12" width="1" height="1" fill="#524B24" />
<rect x="19" y="12" width="1" height="8" fill="#EAC8C8" />
<rect x="10" y="13" width="1" height="7" fill="#EAC8C8" />
<rect x="12" y="13" width="2" height="1" fill="#14310E" />
<rect x="14" y="13" width="1" height="1" fill="#103C07" />
<rect x="15" y="13" width="1" height="5" fill="#413C1F" />
<rect x="16" y="13" width="1" height="1" fill="#103C07" />
<rect x="17" y="13" width="1" height="1" fill="#14310E" />
<rect x="11" y="14" width="3" height="3" fill="#EAC8C8" />
<rect x="14" y="14" width="1" height="3" fill="#412007" />
<rect x="16" y="14" width="3" height="3" fill="#EAC8C8" />
<rect x="11" y="17" width="2" height="3" fill="#EAC8C8" />
<rect x="13" y="17" width="1" height="1" fill="#412007" />
<rect x="14" y="17" width="1" height="1" fill="#413C1F" />
<rect x="16" y="17" width="1" height="1" fill="#413C1F" />
<rect x="17" y="17" width="2" height="3" fill="#EAC8C8" />
<rect x="13" y="18" width="4" height="2" fill="#EAC8C8" />
<rect x="8" y="20" width="1" height="4" fill="#EAC8C8" />
<rect x="9" y="20" width="3" height="1" fill="#222034" />
<rect x="12" y="20" width="1" height="8" fill="#EAC8C8" />
<rect x="13" y="20" width="2" height="1" fill="#222034" />
<rect x="15" y="20" width="2" height="1" fill="#EAC8C8" />
<rect x="17" y="20" width="3" height="1" fill="#222034" />
<rect x="20" y="20" width="1" height="8" fill="#EAC8C8" />
<rect x="21" y="20" width="3" height="1" fill="#222034" />
<rect x="24" y="20" width="1" height="7" fill="#EAC8C8" />
<rect x="9" y="21" width="1" height="7" fill="#EAC8C8" />
<rect x="10" y="21" width="1" height="4" fill="#222034" />
<rect x="11" y="21" width="1" height="7" fill="#EAC8C8" />
<rect x="13" y="21" width="1" height="4" fill="#222034" />
<rect x="14" y="21" width="1" height="1" fill="#EAC8C8" />
<rect x="15" y="21" width="1" height="2" fill="#222034" />
<rect x="16" y="21" width="1" height="7" fill="#EAC8C8" />
<rect x="17" y="21" width="1" height="4" fill="#222034" />
<rect x="18" y="21" width="2" height="1" fill="#EAC8C8" />
<rect x="21" y="21" width="1" height="4" fill="#222034" />
<rect x="22" y="21" width="2" height="1" fill="#EAC8C8" />
<rect x="14" y="22" width="1" height="2" fill="#222034" />
<rect x="18" y="22" width="1" height="1" fill="#222034" />
<rect x="19" y="22" width="1" height="2" fill="#EAC8C8" />
<rect x="22" y="22" width="1" height="1" fill="#222034" />
<rect x="23" y="22" width="1" height="2" fill="#EAC8C8" />
<rect x="15" y="23" width="1" height="1" fill="#EAC8C8" />
<rect x="18" y="23" width="1" height="1" fill="#EAC8C8" />
<rect x="22" y="23" width="1" height="1" fill="#EAC8C8" />
<rect x="8" y="24" width="1" height="1" fill="#222034" />
<rect x="14" y="24" width="1" height="4" fill="#EAC8C8" />
<rect x="15" y="24" width="1" height="1" fill="#222034" />
<rect x="18" y="24" width="2" height="1" fill="#222034" />
<rect x="22" y="24" width="2" height="1" fill="#222034" />
<rect x="8" y="25" width="1" height="3" fill="#EAC8C8" />
<rect x="10" y="25" width="1" height="3" fill="#EAC8C8" />
<rect x="13" y="25" width="1" height="3" fill="#EAC8C8" />
<rect x="15" y="25" width="1" height="3" fill="#EAC8C8" />
<rect x="17" y="25" width="3" height="3" fill="#EAC8C8" />
<rect x="21" y="25" width="3" height="3" fill="#EAC8C8" />
<rect x="7" y="27" width="1" height="2" fill="#222034" />
<rect x="24" y="27" width="1" height="2" fill="#222034" />
<rect x="8" y="28" width="16" height="1" fill="#222034" />
</svg>